<?xml version="1.0" encoding="UTF-8"?>
<svg version="1.1" xmlns="http://www.w3.org/2000/svg" width="545" height="544">
<path d="M0 0 C179.85 0 359.7 0 545 0 C545 179.52 545 359.04 545 544 C365.15 544 185.3 544 0 544 C0 364.48 0 184.96 0 0 Z " fill="#40749D" transform="translate(0,0)"/>
<path d="M0 0 C1.21427782 -0.00445784 2.42855563 -0.00891569 3.67962974 -0.01350862 C5.03419237 -0.01341932 6.388755 -0.01322946 7.7433176 -0.01294994 C9.1769108 -0.01624865 10.61050307 -0.01997423 12.04409415 -0.02409142 C15.9932994 -0.03411931 19.94248945 -0.0378295 23.89170563 -0.04048073 C28.14755248 -0.04438159 32.40338726 -0.05396025 36.65922642 -0.0626936 C46.94362469 -0.08246683 57.22802395 -0.09252646 67.51243648 -0.10142139 C72.35589289 -0.10580391 77.19934821 -0.11117091 82.04280376 -0.11641026 C98.14533702 -0.13342533 114.24786959 -0.14791846 130.35041046 -0.155159 C134.53025342 -0.15706889 138.71009637 -0.15898922 142.88993931 -0.16094494 C143.92881963 -0.16142868 144.96769996 -0.16191242 146.03806151 -0.16241082 C162.85893319 -0.17070715 179.67973367 -0.19603613 196.50057428 -0.22852562 C213.77183817 -0.26161288 231.04306589 -0.27960937 248.31436163 -0.28280324 C258.01077663 -0.28496706 267.70708786 -0.29369681 277.40347195 -0.31926441 C285.66358054 -0.34099438 293.92356018 -0.34901063 302.18369412 -0.33929763 C306.39583166 -0.33475924 310.60770328 -0.33661205 314.81980419 -0.35605907 C318.68229633 -0.37373729 322.54432947 -0.37265569 326.4068268 -0.35716178 C327.79792954 -0.3547927 329.18906446 -0.35907271 330.58011817 -0.37099043 C345.37906476 -0.48983936 356.86140718 3.35214079 367.90141392 13.25922108 C376.62206616 22.40576564 379.52866428 34.43332399 379.47461033 46.67126942 C379.47843588 47.60068796 379.48226142 48.53010651 379.4862029 49.48768926 C379.49647841 52.58574525 379.49255108 55.68361402 379.48857212 58.78168201 C379.49292167 61.0096704 379.49810563 63.2376573 379.50405979 65.46564198 C379.51743645 71.5071205 379.51802981 77.54853641 379.51549649 83.59002686 C379.51442565 88.63948927 379.51931318 93.68893908 379.52410191 98.73839879 C379.53582678 111.33683267 379.53497471 123.93522832 379.5285451 136.53366163 C379.52337985 147.45351162 379.53462292 158.37327229 379.55364332 169.29310462 C379.57305738 180.52574583 379.58098046 191.75834603 379.57752007 202.99100804 C379.57571017 209.28914111 379.57831397 215.58719241 379.59223461 221.88531208 C379.60484319 227.81151725 379.60284008 233.73754428 379.58982372 239.66374683 C379.58746481 241.832441 379.5901679 244.00114782 379.59844685 246.16982746 C379.66289368 264.37168785 378.34706313 279.16714965 365.44828892 293.06000233 C355.05774123 302.70577299 343.7206795 304.58511748 330.01872349 304.50844288 C328.5860615 304.51118675 327.15340153 304.51524164 325.72074652 304.52048653 C321.80203028 304.53103433 317.88354344 304.52296987 313.96483731 304.51173604 C309.73164512 304.50287108 305.4984822 304.51134417 301.26529026 304.51759815 C292.97962367 304.52707483 284.69404431 304.5204962 276.4083842 304.50833521 C266.7556594 304.49469689 257.10295525 304.49635469 247.45022327 304.49846854 C230.22511398 304.50165678 213.00004608 304.49000022 195.77494907 304.47040272 C179.06757948 304.45139929 162.36025839 304.44431539 145.65287876 304.44989491 C127.45161575 304.45595535 109.25037405 304.45577075 91.0491128 304.44440907 C89.10758146 304.44320181 87.16605012 304.44199582 85.22451878 304.44079113 C83.79168133 304.43988582 83.79168133 304.43988582 82.32989767 304.43896222 C75.60439009 304.43508602 68.87889046 304.43547555 62.1533823 304.43737698 C53.95520007 304.43950106 45.75706027 304.43425867 37.55888999 304.41976342 C33.37754344 304.41252946 29.19625863 304.40843389 25.01490688 304.41300678 C21.18437077 304.41709405 17.35396192 304.41188695 13.52344507 304.39938071 C11.48755247 304.39508309 9.45164642 304.40053127 7.41575766 304.40636998 C-5.21527124 304.34604228 -16.53927259 302.40085951 -26.03608608 293.44672108 C-33.50953116 285.42975273 -39.89136491 274.29322957 -39.92030716 263.0679369 C-39.924765 262.26270871 -39.92922285 261.45748053 -39.93381578 260.62785149 C-39.93353923 259.30939311 -39.93353923 259.30939311 -39.9332571 257.9642992 C-39.93693379 257.0260477 -39.94061048 256.08779619 -39.94439858 255.12111282 C-39.95543369 251.96922673 -39.95927901 248.8173736 -39.96308804 245.66547108 C-39.96935292 243.40851709 -39.97599974 241.15156414 -39.98300076 238.89461231 C-40.0040442 231.47448921 -40.01440482 224.0543659 -40.02436733 216.63422108 C-40.02841507 214.07879087 -40.032532 211.52336078 -40.03671741 208.96793079 C-40.05358785 198.3357769 -40.0682214 187.70362641 -40.07546616 177.07146168 C-40.07737591 174.31357287 -40.07929626 171.55568407 -40.0812521 168.7977953 C-40.08173584 168.11237301 -40.08221958 167.42695073 -40.08271798 166.72075808 C-40.09100975 155.62927473 -40.11633227 144.53789952 -40.14883278 133.44646335 C-40.18196297 122.0467045 -40.19958805 110.64702623 -40.2031104 99.24721432 C-40.20545857 92.85173032 -40.21438876 86.4564172 -40.23957157 80.06097889 C-40.26289786 74.03959388 -40.267067 68.0184917 -40.25681019 61.99707317 C-40.2563158 59.79289718 -40.26260751 57.58870705 -40.27636623 55.38457394 C-40.36606028 40.15757667 -39.6322956 27.5198423 -29.78608608 15.13422108 C-29.30784389 14.51933826 -28.82960171 13.90445545 -28.33686733 13.27093983 C-21.68999576 5.71995978 -10.01443925 0.01701751 0 0 Z " fill="#FCFCFD" transform="translate(102.7860860824585,126.86577892303467)"/>
<path d="M0 0 C32.34 0 64.68 0 98 0 C98 8.25 98 16.5 98 25 C86.45 25 74.9 25 63 25 C63 56.35 63 87.7 63 120 C53.76 120 44.52 120 35 120 C34.67 98.55 34.34 77.1 34 55 C25.14008995 65.43419666 25.14008995 65.43419666 16.75390625 76.171875 C14.8303398 78.17683958 13.71618672 78.64182153 11 79 C9.58155991 77.43910974 8.16532975 75.8762111 6.75 74.3125 C5.96109375 73.44238281 5.1721875 72.57226562 4.359375 71.67578125 C2.15465693 69.17539735 0.07261444 66.60988811 -2 64 C-2.00808685 64.67207489 -2.01617371 65.34414978 -2.02450562 66.03659058 C-2.11035284 73.011733 -2.20984703 79.98658469 -2.31738281 86.96142578 C-2.35574082 89.56684499 -2.39058145 92.1723184 -2.421875 94.77783203 C-2.46737751 98.51614803 -2.52539626 102.25408865 -2.5859375 105.9921875 C-2.59748871 107.16304901 -2.60903992 108.33391052 -2.62094116 109.54025269 C-2.64081085 110.62122223 -2.66068054 111.70219177 -2.68115234 112.81591797 C-2.69447601 113.77078094 -2.70779968 114.72564392 -2.7215271 115.70944214 C-3 118 -3 118 -5 120 C-7.09375 120.265625 -7.09375 120.265625 -9.5 120.25 C-10.2940625 120.25515625 -11.088125 120.2603125 -11.90625 120.265625 C-14 120 -14 120 -16 118 C-16.2784729 116.08908081 -16.2784729 116.08908081 -16.31884766 113.73388672 C-16.33871735 112.85312469 -16.35858704 111.97236267 -16.37905884 111.06491089 C-16.39061005 110.11278717 -16.40216125 109.16066345 -16.4140625 108.1796875 C-16.43342865 107.20589142 -16.4527948 106.23209534 -16.4727478 105.22879028 C-16.53264558 102.11094997 -16.57896971 98.99307294 -16.625 95.875 C-16.66317039 93.76430659 -16.70222156 91.65362892 -16.7421875 89.54296875 C-16.83835549 84.36210657 -16.92234872 79.18117147 -17 74 C-20.96 78.455 -20.96 78.455 -25 83 C-30.17469679 81.7063258 -30.91755537 80.19554964 -34 76 C-34 75.34 -34 74.68 -34 74 C-34.66 74 -35.32 74 -36 74 C-35.99555878 74.54679413 -35.99111755 75.09358826 -35.98654175 75.6569519 C-35.94238644 81.33426304 -35.91216621 87.01152561 -35.89013672 92.68896484 C-35.88006249 94.8094277 -35.86640267 96.92987661 -35.84912109 99.05029297 C-35.82493511 102.09345943 -35.81353131 105.13644266 -35.8046875 108.1796875 C-35.79436493 109.13181122 -35.78404236 110.08393494 -35.77340698 111.06491089 C-35.77325592 111.94567291 -35.77310486 112.82643494 -35.77294922 113.73388672 C-35.768508 114.51110077 -35.76406677 115.28831482 -35.75949097 116.08908081 C-36 118 -36 118 -38 120 C-40.09375 120.265625 -40.09375 120.265625 -42.5 120.25 C-43.2940625 120.25515625 -44.088125 120.2603125 -44.90625 120.265625 C-47 120 -47 120 -49 118 C-49.25396729 115.15344238 -49.25396729 115.15344238 -49.25878906 111.47070312 C-49.2622937 110.80062729 -49.26579834 110.13055145 -49.26940918 109.44017029 C-49.27822732 107.22042548 -49.27237724 105.00099817 -49.265625 102.78125 C-49.26697163 101.24190204 -49.26891215 99.7025545 -49.27142334 98.16320801 C-49.27437471 94.93509883 -49.27007661 91.70710024 -49.26074219 88.47900391 C-49.24934757 84.33594206 -49.25590699 80.19313931 -49.26788712 76.05008698 C-49.27510542 72.87085 -49.27281794 69.69167472 -49.26763153 66.51243591 C-49.26629495 64.98457305 -49.26794306 63.45670464 -49.27259064 61.92884827 C-49.27765547 59.79551301 -49.26994669 57.66260055 -49.25878906 55.52929688 C-49.25719788 54.31399292 -49.25560669 53.09868896 -49.25396729 51.84655762 C-49 49 -49 49 -47 47 C-44.90625 46.76953125 -44.90625 46.76953125 -42.5 46.8125 C-41.30890625 46.82216797 -41.30890625 46.82216797 -40.09375 46.83203125 C-38 47 -38 47 -36 48 C-35.89891686 49.99787845 -35.87036938 51.99957138 -35.875 54 C-35.49983324 60.67208334 -33.53737785 63.81067248 -28.91015625 68.48828125 C-27.14461527 70.20685991 -27.14461527 70.20685991 -25 70 C-20.04878782 65.33229281 -16.59087373 60.91502772 -16.125 54 C-16.12886719 52.63875 -16.12886719 52.63875 -16.1328125 51.25 C-16 49 -16 49 -14 47 C-10.76818639 45.87774385 -8.25121653 45.96595924 -5 47 C-1.31211376 50.17341592 1.73275704 53.71072748 4.78125 57.49072266 C6.3669322 59.45440201 8.02644619 61.34997382 9.6875 63.25 C10.450625 64.1575 11.21375 65.065 12 66 C15.99648911 63.06307829 18.95051816 59.7754477 21.875 55.8125 C26.61850643 49.4089886 26.61850643 49.4089886 29.16796875 46.67578125 C35.92525042 39.361198 34.21806506 36.72902404 35 25 C23.45 25 11.9 25 0 25 C0 16.75 0 8.5 0 0 Z " fill="#03274E" transform="translate(294,180)"/>
<path d="M0 0 C9.24 0 18.48 0 28 0 C28 39.6 28 79.2 28 120 C18.76 120 9.52 120 0 120 C0 80.4 0 40.8 0 0 Z " fill="#05294F" transform="translate(180,180)"/>
<path d="M0 0 C0.7940625 0.01417969 1.588125 0.02835938 2.40625 0.04296875 C3.59734375 0.05263672 3.59734375 0.05263672 4.8125 0.0625 C6.90625 0.23046875 6.90625 0.23046875 8.90625 1.23046875 C9.00733314 3.2283472 9.03588062 5.23004013 9.03125 7.23046875 C9.40641676 13.90255209 11.36887215 17.04114123 15.99609375 21.71875 C17.76163473 23.43732866 17.76163473 23.43732866 19.90625 23.23046875 C24.85746218 18.56276156 28.31537627 14.14549647 28.78125 7.23046875 C28.77738281 5.86921875 28.77738281 5.86921875 28.7734375 4.48046875 C28.90625 2.23046875 28.90625 2.23046875 30.90625 0.23046875 C34.13806361 -0.8917874 36.65503347 -0.80357201 39.90625 0.23046875 C43.59413624 3.40388467 46.63900704 6.94119623 49.6875 10.72119141 C51.2731822 12.68487076 52.93269619 14.58044257 54.59375 16.48046875 C55.356875 17.38796875 56.12 18.29546875 56.90625 19.23046875 C57.89625 18.90046875 58.88625 18.57046875 59.90625 18.23046875 C60.174375 19.01421875 60.4425 19.79796875 60.71875 20.60546875 C61.75439432 23.51161798 61.75439432 23.51161798 64.90625 25.23046875 C62.92625 27.54046875 60.94625 29.85046875 58.90625 32.23046875 C54.85913495 31.21868999 54.34438332 31.03082526 51.890625 28.0703125 C51.36210937 27.44189453 50.83359375 26.81347656 50.2890625 26.16601562 C49.75023437 25.50666016 49.21140625 24.84730469 48.65625 24.16796875 C47.82480469 23.17313477 47.82480469 23.17313477 46.9765625 22.15820312 C45.61151358 20.52249795 44.25777091 18.87736924 42.90625 17.23046875 C42.89816315 17.90254364 42.89007629 18.57461853 42.88174438 19.26705933 C42.79589716 26.24220175 42.69640297 33.21705344 42.58886719 40.19189453 C42.55050918 42.79731374 42.51566855 45.40278715 42.484375 48.00830078 C42.43887249 51.74661678 42.38085374 55.4845574 42.3203125 59.22265625 C42.30876129 60.39351776 42.29721008 61.56437927 42.28530884 62.77072144 C42.26543915 63.85169098 42.24556946 64.93266052 42.22509766 66.04638672 C42.21177399 67.00124969 42.19845032 67.95611267 42.1847229 68.93991089 C41.90625 71.23046875 41.90625 71.23046875 39.90625 73.23046875 C37.8125 73.49609375 37.8125 73.49609375 35.40625 73.48046875 C34.6121875 73.485625 33.818125 73.49078125 33 73.49609375 C30.90625 73.23046875 30.90625 73.23046875 28.90625 71.23046875 C28.6277771 69.31954956 28.6277771 69.31954956 28.58740234 66.96435547 C28.56753265 66.08359344 28.54766296 65.20283142 28.52719116 64.29537964 C28.51563995 63.34325592 28.50408875 62.3911322 28.4921875 61.41015625 C28.47282135 60.43636017 28.4534552 59.46256409 28.4335022 58.45925903 C28.37360442 55.34141872 28.32728029 52.22354169 28.28125 49.10546875 C28.24307961 46.99477534 28.20402844 44.88409767 28.1640625 42.7734375 C28.06789451 37.59257532 27.98390128 32.41164022 27.90625 27.23046875 C23.94625 31.68546875 23.94625 31.68546875 19.90625 36.23046875 C14.73155321 34.93679455 13.98869463 33.42601839 10.90625 29.23046875 C10.90625 28.57046875 10.90625 27.91046875 10.90625 27.23046875 C10.24625 27.23046875 9.58625 27.23046875 8.90625 27.23046875 C8.91069122 27.77726288 8.91513245 28.32405701 8.91970825 28.88742065 C8.96386356 34.56473179 8.99408379 40.24199436 9.01611328 45.91943359 C9.02618751 48.03989645 9.03984733 50.16034536 9.05712891 52.28076172 C9.08131489 55.32392818 9.09271869 58.36691141 9.1015625 61.41015625 C9.11188507 62.36227997 9.12220764 63.31440369 9.13284302 64.29537964 C9.13299408 65.17614166 9.13314514 66.05690369 9.13330078 66.96435547 C9.137742 67.74156952 9.14218323 68.51878357 9.14675903 69.31954956 C8.90625 71.23046875 8.90625 71.23046875 6.90625 73.23046875 C4.8125 73.49609375 4.8125 73.49609375 2.40625 73.48046875 C1.6121875 73.485625 0.818125 73.49078125 0 73.49609375 C-2.09375 73.23046875 -2.09375 73.23046875 -4.09375 71.23046875 C-4.34771729 68.38391113 -4.34771729 68.38391113 -4.35253906 64.70117188 C-4.3560437 64.03109604 -4.35954834 63.3610202 -4.36315918 62.67063904 C-4.37197732 60.45089423 -4.36612724 58.23146692 -4.359375 56.01171875 C-4.36072163 54.47237079 -4.36266215 52.93302325 -4.36517334 51.39367676 C-4.36812471 48.16556758 -4.36382661 44.93756899 -4.35449219 41.70947266 C-4.34309757 37.56641081 -4.34965699 33.42360806 -4.36163712 29.28055573 C-4.36885542 26.10131875 -4.36656794 22.92214347 -4.36138153 19.74290466 C-4.36004495 18.2150418 -4.36169306 16.68717339 -4.36634064 15.15931702 C-4.37140547 13.02598176 -4.36369669 10.8930693 -4.35253906 8.75976562 C-4.35094788 7.54446167 -4.34935669 6.32915771 -4.34771729 5.07702637 C-4.04697812 1.70623257 -3.50768436 0.38610705 0 0 Z " fill="#044E89" transform="translate(249.09375,226.76953125)"/>
<path d="M0 0 C3.765648 0.05466263 4.98523916 0.80851726 7.890625 3.30859375 C10.33689512 5.8874327 12.61294197 8.59962029 14.84375 11.36572266 C16.4294322 13.32940201 18.08894619 15.22497382 19.75 17.125 C20.8946875 18.48625 20.8946875 18.48625 22.0625 19.875 C23.0525 19.545 24.0425 19.215 25.0625 18.875 C25.330625 19.65875 25.59875 20.4425 25.875 21.25 C26.91064432 24.15614923 26.91064432 24.15614923 30.0625 25.875 C28.0825 28.185 26.1025 30.495 24.0625 32.875 C20.01538495 31.86322124 19.50063332 31.67535651 17.046875 28.71484375 C16.51835937 28.08642578 15.98984375 27.45800781 15.4453125 26.81054688 C14.90648437 26.15119141 14.36765625 25.49183594 13.8125 24.8125 C13.25820313 24.14927734 12.70390625 23.48605469 12.1328125 22.80273438 C10.76776358 21.1670292 9.41402091 19.52190049 8.0625 17.875 C8.05441315 18.54707489 8.04632629 19.21914978 8.03799438 19.91159058 C7.95214716 26.886733 7.85265297 33.86158469 7.74511719 40.83642578 C7.70675918 43.44184499 7.67191855 46.0473184 7.640625 48.65283203 C7.59512249 52.39114803 7.53710374 56.12908865 7.4765625 59.8671875 C7.46501129 61.03804901 7.45346008 62.20891052 7.44155884 63.41525269 C7.42168915 64.49622223 7.40181946 65.57719177 7.38134766 66.69091797 C7.36802399 67.64578094 7.35470032 68.60064392 7.3409729 69.58444214 C7.0625 71.875 7.0625 71.875 5.0625 73.875 C2.96875 74.140625 2.96875 74.140625 0.5625 74.125 C-0.2315625 74.13015625 -1.025625 74.1353125 -1.84375 74.140625 C-3.9375 73.875 -3.9375 73.875 -5.9375 71.875 C-6.19146729 69.02844238 -6.19146729 69.02844238 -6.19628906 65.34570312 C-6.1997937 64.67562729 -6.20329834 64.00555145 -6.20690918 63.31517029 C-6.21572732 61.09542548 -6.20987724 58.87599817 -6.203125 56.65625 C-6.20447163 55.11690204 -6.20641215 53.5775545 -6.20892334 52.03820801 C-6.21187471 48.81009883 -6.20757661 45.58210024 -6.19824219 42.35400391 C-6.18684757 38.21094206 -6.19340699 34.06813931 -6.20538712 29.92508698 C-6.21260542 26.74585 -6.21031794 23.56667472 -6.20513153 20.38743591 C-6.20379495 18.85957305 -6.20544306 17.33170464 -6.21009064 15.80384827 C-6.21515547 13.67051301 -6.20744669 11.53760055 -6.19628906 9.40429688 C-6.19469788 8.18899292 -6.19310669 6.97368896 -6.19146729 5.72155762 C-5.81042123 1.45065493 -4.00226679 0.47766656 0 0 Z " fill="#0387F2" transform="translate(283.9375,226.125)"/>
<path d="M0 0 C4.18325255 2.97759898 6.49795241 6.69121732 8.7890625 11.2734375 C8.7890625 14.5734375 8.7890625 17.8734375 8.7890625 21.2734375 C-1.1109375 21.2734375 -11.0109375 21.2734375 -21.2109375 21.2734375 C-17.68233374 27.27908687 -17.68233374 27.27908687 -12.2109375 29.2734375 C-7.17873458 29.71485881 -5.09602364 29.35471271 -1.2109375 26.2734375 C1.74693973 26.36587116 2.78248049 27.26776966 5.0390625 29.2109375 C6.7890625 31.2734375 6.7890625 31.2734375 6.7890625 33.2734375 C-1.29003022 38.0898197 -8.86877909 39.95656768 -18.375 37.77734375 C-24.75848143 35.28862962 -28.68897575 30.50684015 -31.48046875 24.4453125 C-33.27342578 19.11438144 -32.902556 14.20893409 -30.6484375 9.0859375 C-27.71992227 3.90153421 -23.67393099 0.45139091 -18.3359375 -2.1015625 C-11.57921491 -3.45290702 -6.11282374 -3.433897 0 0 Z " fill="#0B284D" transform="translate(418.2109375,343.7265625)"/>
<path d="M0 0 C4.16946454 2.48564232 7.03981041 4.52792964 9.25 8.9375 C9.9896803 14.26761525 9.8171497 19.51716541 9.625 24.875 C9.59486529 26.33653366 9.56749563 27.7981271 9.54296875 29.25976562 C9.47724219 32.82026374 9.37391851 36.37849692 9.25 39.9375 C5.95 39.9375 2.65 39.9375 -0.75 39.9375 C-1.08 38.9475 -1.41 37.9575 -1.75 36.9375 C-2.78640625 37.66453125 -2.78640625 37.66453125 -3.84375 38.40625 C-8.87911234 41.05929037 -14.20532282 40.72044543 -19.75 39.9375 C-22.9375 37.5625 -22.9375 37.5625 -24.75 34.9375 C-25.41 34.2775 -26.07 33.6175 -26.75 32.9375 C-27.47796444 28.62896631 -27.26891001 24.97532001 -25.3125 21.0625 C-18.38674404 15.31919018 -10.37652881 15.54339462 -1.75 15.9375 C-2.16998327 12.32894645 -2.16998327 12.32894645 -4.3125 9.625 C-9.46809468 8.17085791 -13.41361335 8.36476286 -18.25 10.4375 C-19.075 10.9325 -19.9 11.4275 -20.75 11.9375 C-22.8125 9.6875 -22.8125 9.6875 -24.75 6.9375 C-24.6484375 4.90625 -24.6484375 4.90625 -23.75 2.9375 C-16.48131992 -1.82018151 -8.15527421 -2.31066103 0 0 Z " fill="#09274D" transform="translate(330.75,342.0625)"/>
<path d="M0 0 C3.63 0 7.26 0 11 0 C11.44653931 1.08269165 11.44653931 1.08269165 11.90209961 2.18725586 C13.24466362 5.4384053 14.5910287 8.68796694 15.9375 11.9375 C16.40607422 13.07380859 16.87464844 14.21011719 17.35742188 15.38085938 C17.80537109 16.46044922 18.25332031 17.54003906 18.71484375 18.65234375 C19.12855225 19.65257568 19.54226074 20.65280762 19.96850586 21.68334961 C20.79701292 23.91646275 20.79701292 23.91646275 22 25 C25.3 16.75 28.6 8.5 32 0 C35.63 0 39.26 0 43 0 C41.05238993 6.12106023 38.80800718 11.91885408 36.125 17.75 C33.69987433 23.09356278 31.40282809 28.42681134 29.375 33.9375 C23.31504389 50.03617128 23.31504389 50.03617128 17 54 C14.22947819 54.92350727 12.43311242 55.16329585 9.5625 55.1875 C8.41974609 55.20876953 8.41974609 55.20876953 7.25390625 55.23046875 C4.76652685 54.97612666 3.15191894 54.24017196 1 53 C1.875 47.25 1.875 47.25 3 45 C6.3 45 9.6 45 13 45 C15.33191025 40.3361795 15.09896835 38.97814071 14 34 C13.0150774 31.39422728 11.99576264 28.91131241 10.83984375 26.38671875 C10.37584923 25.34328056 10.37584923 25.34328056 9.90248108 24.27876282 C8.92239113 22.07787943 7.93070749 19.88249096 6.9375 17.6875 C5.94254774 15.47390543 4.95014112 13.25923647 3.96180725 11.04267883 C3.34842278 9.66852575 2.73090661 8.296208 2.10887146 6.9259491 C0 2.22264028 0 2.22264028 0 0 Z " fill="#0A284D" transform="translate(136,342)"/>
<path d="M0 0 C10.89 0 21.78 0 33 0 C33 8 33 8 31.3125 10.6171875 C30.549375 11.36226563 29.78625 12.10734375 29 12.875 C25.68433034 16.26388634 22.56825067 19.65490622 19.625 23.375 C18.68527344 24.56222656 18.68527344 24.56222656 17.7265625 25.7734375 C16.12977563 27.83264228 14.56346377 29.91538165 13 32 C20.26 32 27.52 32 35 32 C35 34.64 35 37.28 35 40 C23.12 40 11.24 40 -1 40 C-1 32 -1 32 0.65234375 29.41796875 C1.40644531 28.68191406 2.16054687 27.94585937 2.9375 27.1875 C6.45311564 23.5940068 9.76536291 19.96587649 12.9375 16.0625 C14.03384766 14.71865234 14.03384766 14.71865234 15.15234375 13.34765625 C17.09544907 10.94207714 17.09544907 10.94207714 19 8 C12.73 8 6.46 8 0 8 C0 5.36 0 2.72 0 0 Z " fill="#0B294E" transform="translate(181,342)"/>
<path d="M0 0 C3.28837607 1.90725812 5.60187643 3.98354328 8.125 6.8125 C6.674046 10.63774236 4.74318068 12.00340966 1.125 13.8125 C0.465 13.8125 -0.195 13.8125 -0.875 13.8125 C-1.225625 13.1525 -1.57625 12.4925 -1.9375 11.8125 C-4.24739386 9.42809343 -5.02096706 9.41600335 -8.25 9.25 C-11.71620213 9.43094367 -12.89275715 9.82373411 -15.9375 11.75 C-18.54527183 15.87196192 -18.68487652 19.05662939 -17.875 23.8125 C-16.1630813 27.57648568 -16.1630813 27.57648568 -12.875 29.8125 C-7.14999445 30.45327901 -7.14999445 30.45327901 -2.375 27.8125 C-1.88 27.1525 -1.385 26.4925 -0.875 25.8125 C2.2081351 27.01149698 5.18779492 28.28950477 8.125 29.8125 C7.79460927 32.89614682 7.14842865 33.79097097 4.8125 35.9375 C-1.87416811 40.60261728 -7.81283198 40.54877105 -15.875 39.8125 C-21.30826215 38.18621745 -24.71674591 34.32429156 -27.875 29.8125 C-30.30244081 24.72643354 -30.70507254 19.34916942 -29.875 13.8125 C-27.32457306 7.51852794 -22.78236278 3.1618637 -17.0234375 -0.30078125 C-11.88783078 -2.4203862 -5.14595328 -1.99052259 0 0 Z " fill="#0B284E" transform="translate(375.875,342.1875)"/>
<path d="M0 0 C14.19 0 28.38 0 43 0 C43 2.97 43 5.94 43 9 C37.39 9 31.78 9 26 9 C26 23.19 26 37.38 26 52 C22.7 52 19.4 52 16 52 C16 37.81 16 23.62 16 9 C10.72 9 5.44 9 0 9 C0 6.03 0 3.06 0 0 Z " fill="#032249" transform="translate(236,329)"/>
<path d="M0 0 C3.63 0 7.26 0 11 0 C11 17.49 11 34.98 11 53 C7.37 53 3.74 53 0 53 C0 35.51 0 18.02 0 0 Z " fill="#08284E" transform="translate(120,329)"/>
<path d="M0 0 C3.63 0 7.26 0 11 0 C11 1.65 11 3.3 11 5 C11.66 4.34 12.32 3.68 13 3 C17.01858853 0.32094098 19.25305716 0.67817337 24 1 C24 3.97 24 6.94 24 10 C23.30132812 10.09796875 22.60265625 10.1959375 21.8828125 10.296875 C20.97273438 10.44640625 20.06265625 10.5959375 19.125 10.75 C17.76761719 10.95882813 17.76761719 10.95882813 16.3828125 11.171875 C13.91426121 11.76093117 13.91426121 11.76093117 12.87695312 13.68554688 C11.81006031 16.5012885 11.67805642 18.85015711 11.5859375 21.859375 C11.52792969 23.53193359 11.52792969 23.53193359 11.46875 25.23828125 C11.42234375 26.97658203 11.42234375 26.97658203 11.375 28.75 C11.31699219 30.51150391 11.31699219 30.51150391 11.2578125 32.30859375 C11.16360508 35.20547204 11.08071617 38.10271441 11 41 C7.37 41 3.74 41 0 41 C0 27.47 0 13.94 0 0 Z " fill="#112F53" transform="translate(278,341)"/>
<path d="M0 0 C0.680625 -0.01675781 1.36125 -0.03351563 2.0625 -0.05078125 C4.70577798 0.44483337 5.40452247 1.13848845 7 3.3125 C7.38818359 6.45117188 7.38818359 6.45117188 7.3984375 10.28125 C7.40274277 11.29632629 7.40274277 11.29632629 7.40713501 12.33190918 C7.40917397 13.76083209 7.40365569 15.18978302 7.39111328 16.61865234 C7.37505511 18.80499725 7.39096534 20.98949379 7.41015625 23.17578125 C7.40817379 24.56510824 7.40433004 25.95443409 7.3984375 27.34375 C7.39505371 28.60767578 7.39166992 29.87160156 7.38818359 31.17382812 C7 34.3125 7 34.3125 5.61206055 36.2253418 C3.46295524 37.67467785 2.01150556 37.68012697 -0.5625 37.625 C-1.34753906 37.62113281 -2.13257813 37.61726563 -2.94140625 37.61328125 C-5 37.3125 -5 37.3125 -7 35.3125 C-7.21169748 32.82707753 -7.3039953 30.45575157 -7.30078125 27.96875 C-7.30506638 27.24385376 -7.3093515 26.51895752 -7.31376648 25.77209473 C-7.31951167 24.23886154 -7.32000864 22.7056011 -7.31567383 21.17236328 C-7.31251206 18.82146956 -7.33597461 16.47183192 -7.36132812 14.12109375 C-7.36360087 12.63281409 -7.36430473 11.14453104 -7.36328125 9.65625 C-7.372491 8.95101196 -7.38170074 8.24577393 -7.39118958 7.51916504 C-7.37231445 5.53710938 -7.37231445 5.53710938 -7 2.3125 C-4.03082597 0.33305064 -3.34297721 0.01899419 0 0 Z " fill="#0F5389" transform="translate(227,262.6875)"/>
<path d="M0 0 C3.63 0 7.26 0 11 0 C11 13.2 11 26.4 11 40 C7.37 40 3.74 40 0 40 C0 26.8 0 13.6 0 0 Z " fill="#0B2A4F" transform="translate(221,342)"/>
<path d="M0 0 C0.33 0 0.66 0 1 0 C2.22239317 11.93531105 2.22239317 11.93531105 -0.5703125 16.65234375 C-2.62730154 18.87748968 -4.78972059 20.92835819 -7 23 C-8.20046311 24.49430032 -9.37035586 26.01396868 -10.5 27.5625 C-10.9846875 28.22378906 -11.469375 28.88507813 -11.96875 29.56640625 C-12.3090625 30.03949219 -12.649375 30.51257813 -13 31 C-17.875 30.125 -17.875 30.125 -19 29 C-19.58533443 26.27357386 -19.37020078 24.58516126 -17.87402344 22.22021484 C-16.26143406 20.1577099 -14.58830877 18.16711655 -12.875 16.1875 C-11.72504385 14.82810614 -10.57660205 13.46742978 -9.4296875 12.10546875 C-8.57842285 11.10265869 -8.57842285 11.10265869 -7.70996094 10.07958984 C-5.41519432 7.28878145 -3.28444183 4.38989375 -1.16845703 1.4621582 C-0.78286621 0.979646 -0.39727539 0.49713379 0 0 Z " fill="#0A5697" transform="translate(328,220)"/>
<path d="M0 0 C1.77503906 0.03480469 1.77503906 0.03480469 3.5859375 0.0703125 C5.36871094 0.09738281 5.36871094 0.09738281 7.1875 0.125 C8.10273438 0.14820313 9.01796875 0.17140625 9.9609375 0.1953125 C9.48133717 6.55001691 9.48133717 6.55001691 7.3984375 9.1328125 C3.68365379 10.75207719 1.0120131 10.58112922 -3.0390625 10.1953125 C-5.1015625 9.0078125 -5.1015625 9.0078125 -6.0390625 7.1953125 C-5.7070825 2.65825247 -4.85556424 0.31205426 0 0 Z " fill="#EBEEF1" transform="translate(320.0390625,364.8046875)"/>
<path d="M0 0 C6.84162896 -0.65158371 6.84162896 -0.65158371 10 1.125 C11.49686954 3.93163039 11.45535315 5.87757843 11 9 C9.4375 10.9375 9.4375 10.9375 7 12 C3.375 11.875 3.375 11.875 0 11 C-2.1642235 7.75366476 -2.37569856 6.75698557 -2 3 C-1.34 2.01 -0.68 1.02 0 0 Z " fill="#0A274C" transform="translate(222,325)"/>
<path d="M0 0 C3.33167251 0.53189859 5.01387129 1.86619114 7.2265625 4.35546875 C7.5565625 5.67546875 7.8865625 6.99546875 8.2265625 8.35546875 C1.6265625 8.35546875 -4.9734375 8.35546875 -11.7734375 8.35546875 C-8.9356476 1.260994 -7.44698971 -0.2547016 0 0 Z " fill="#F3F4F6" transform="translate(408.7734375,349.64453125)"/>
<path d="M0 0 C0.33 0 0.66 0 1 0 C1 14.52 1 29.04 1 44 C0.67 44 0.34 44 0 44 C-0.33 31.13 -0.66 18.26 -1 5 C-2.32 6.32 -3.64 7.64 -5 9 C-5.66 8.67 -6.32 8.34 -7 8 C-5.85760183 6.66372225 -4.71098945 5.33104612 -3.5625 4 C-2.92441406 3.2575 -2.28632813 2.515 -1.62890625 1.75 C-1.09136719 1.1725 -0.55382812 0.595 0 0 Z " fill="#BDE1F4" transform="translate(277,253)"/>
<path d="M0 0 C0.99 0.33 1.98 0.66 3 1 C3.66 0.67 4.32 0.34 5 0 C5.268125 0.78375 5.53625 1.5675 5.8125 2.375 C6.84814432 5.28114923 6.84814432 5.28114923 10 7 C8.02 9.31 6.04 11.62 4 14 C2.68 13.67 1.36 13.34 0 13 C-0.33 12.34 -0.66 11.68 -1 11 C1.475 11.495 1.475 11.495 4 12 C4 11.01 4 10.02 4 9 C4.66 9 5.32 9 6 9 C6 8.34 6 7.68 6 7 C5.34 7 4.68 7 4 7 C0 2.52941176 0 2.52941176 0 0 Z " fill="#1D7FD0" transform="translate(304,245)"/>
<path d="M0 0 C0.99 0.33 1.98 0.66 3 1 C2.195625 1.66 1.39125 2.32 0.5625 3 C-2.75148924 6.87979228 -2.74577025 9.00014825 -3 14 C-3.33 14 -3.66 14 -4 14 C-4.63019694 5.96498906 -4.63019694 5.96498906 -2 1.9375 C-1.34 1.298125 -0.68 0.65875 0 0 Z " fill="#344A67" transform="translate(308,361)"/>
<path d="M0 0 C-5.078125 3.3203125 -5.078125 3.3203125 -7 4 C-9.234375 3.1171875 -9.234375 3.1171875 -11 2 C-9.54494642 1.47007308 -8.08581873 0.9513211 -6.625 0.4375 C-5.81289063 0.14746094 -5.00078125 -0.14257812 -4.1640625 -0.44140625 C-2 -1 -2 -1 0 0 Z " fill="#79A2BC" transform="translate(458,428)"/>
</svg>
